<svg xmlns="http://www.w3.org/2000/svg" xmlns:xlink="http://www.w3.org/1999/xlink" id="processonSvg1000" viewBox="71.0 32.0 889.0 735.0" width="889.0" height="735.0"><defs id="ProcessOnDefs1001"><marker id="ProcessOnMarker1039" markerUnits="userSpaceOnUse" orient="auto" markerWidth="14.289086868996552" markerHeight="19.055054660878554" viewBox="-0.5877852522924731 -0.8090169943749475 14.289086868996552 19.055054660878554" refX="12.0" refY="8.71851033606433"><path id="ProcessOnPath1040" d="M0 0L12.0 8.71851033606433L0 17.43702067212866" stroke="#323232" stroke-width="2.0" fill="none" transform="matrix(1.0,0.0,0.0,1.0,0.0,0.0)"/></marker><marker id="ProcessOnMarker1043" markerUnits="userSpaceOnUse" orient="auto" markerWidth="14.289086868996552" markerHeight="19.055054660878554" viewBox="-0.5877852522924731 -0.8090169943749475 14.289086868996552 19.055054660878554" refX="12.0" refY="8.71851033606433"><path id="ProcessOnPath1044" d="M0 0L12.0 8.71851033606433L0 17.43702067212866" stroke="#323232" stroke-width="2.0" fill="none" transform="matrix(1.0,0.0,0.0,1.0,0.0,0.0)"/></marker><marker id="ProcessOnMarker1075" markerUnits="userSpaceOnUse" orient="auto" markerWidth="14.289086868996552" markerHeight="19.055054660878554" viewBox="-0.5877852522924731 -0.8090169943749475 14.289086868996552 19.055054660878554" refX="12.0" refY="8.71851033606433"><path id="ProcessOnPath1076" d="M0 0L12.0 8.71851033606433L0 17.43702067212866" stroke="#323232" stroke-width="2.0" fill="none" transform="matrix(1.0,0.0,0.0,1.0,0.0,0.0)"/></marker></defs><g id="ProcessOnG1002"><path id="ProcessOnPath1003" d="M71.0 32.0H960.0V767.0H71.0V32.0Z" fill="#ffffff"/><g id="ProcessOnG1004"><g id="ProcessOnG1005" transform="matrix(1.0,0.0,0.0,1.0,91.0,52.0)" opacity="1.0"><path id="ProcessOnPath1006" d="M0.0 4.0Q0.0 0.0 4.0 0.0L845.0 0.0Q849.0 0.0 849.0 4.0L849.0 691.0Q849.0 695.0 845.0 695.0L4.0 695.0Q0.0 695.0 0.0 691.0Z" stroke="#323232" stroke-width="2.0" stroke-dasharray="none" opacity="1.0" fill="#ffffff"/><path id="ProcessOnPath1007" d="M0.0 25.0L254.7 25.0L262.7 17.0L262.7 0.0" stroke="#323232" stroke-width="2.0" stroke-dasharray="none" opacity="1.0" fill="#ffffff"/><path id="ProcessOnPath1008" d="M0.0 0.0L849.0 0.0L849.0 695.0L0.0 695.0Z" stroke="#323232" stroke-width="0.0" stroke-dasharray="none" opacity="1.0" fill="none"/><g id="ProcessOnG1009" transform="matrix(1.0,0.0,0.0,1.0,10.0,30.0)"><text id="ProcessOnText1010" fill="#000000" font-weight="normal" font-style="normal" text-decoration="blink" font-family="微软雅黑" text-anchor="start" font-size="15" x="0.0" y="15.375"></text></g><g id="ProcessOnG1011" transform="matrix(1.0,0.0,0.0,1.0,10.0,0.0)"><text id="ProcessOnText1012" fill="#000000" font-weight="normal" font-style="normal" text-decoration="blink" font-family="微软雅黑" text-anchor="start" font-size="15" x="0.0" y="15.375">Test Module Use Case</text></g></g><g id="ProcessOnG1013" transform="matrix(1.0,0.0,0.0,1.0,267.0,107.0)" opacity="1.0"><path id="ProcessOnPath1014" d="M0.0 0.0L605.0 0.0L605.0 591.0L0.0 591.0Z" stroke="#323232" stroke-width="2.0" stroke-dasharray="none" opacity="1.0" fill="#ffffff"/></g><g id="ProcessOnG1015" transform="matrix(1.0,0.0,0.0,1.0,124.0,379.0)" opacity="1.0"><path id="ProcessOnPath1016" d="M23.333333333333332 12.5C23.333333333333332 -4.166666666666666 46.666666666666664 -4.166666666666666 46.666666666666664 12.5C46.666666666666664 29.166666666666668 23.333333333333332 29.166666666666668 23.333333333333332 12.5M35.0 25.0L35.0 75.0M35.0 75.0L5.833333333333333 100.0M35.0 75.0L64.16666666666666 100.0M0.0 50.0L70.0 50.0" stroke="#323232" stroke-width="2.0" stroke-dasharray="none" opacity="1.0" fill="#ffffff"/><path id="ProcessOnPath1017" d="M0.0 0.0L70.0 0.0L70.0 100.0L0.0 100.0Z" stroke="#323232" stroke-width="0.0" stroke-dasharray="none" opacity="1.0" fill="none"/><g id="ProcessOnG1018" transform="matrix(1.0,0.0,0.0,1.0,-20.0,105.0)"><text id="ProcessOnText1019" fill="#000000" font-weight="normal" font-style="normal" text-decoration="blink" font-family="微软雅黑" text-anchor="middle" font-size="16" x="55.0" y="16.4">测试模块</text></g></g><g id="ProcessOnG1020" transform="matrix(1.0,0.0,0.0,1.0,634.0,136.0)" opacity="1.0"><path id="ProcessOnPath1021" d="M0.0 46.5C0.0 -15.5 209.0 -15.5 209.0 46.5C209.0 108.5 0.0 108.5 0.0 46.5Z" stroke="#323232" stroke-width="2.0" stroke-dasharray="none" opacity="1.0" fill="#ffffff"/><g id="ProcessOnG1022" transform="matrix(1.0,0.0,0.0,1.0,10.0,36.5)"><text id="ProcessOnText1023" fill="#000000" font-weight="normal" font-style="normal" text-decoration="blink" font-family="微软雅黑" text-anchor="middle" font-size="16" x="94.5" y="16.4">记录调用路径</text></g></g><g id="ProcessOnG1024" transform="matrix(1.0,0.0,0.0,1.0,620.0,431.0)" opacity="1.0"><path id="ProcessOnPath1025" d="M0.0 47.0C0.0 -15.666666666666666 202.0 -15.666666666666666 202.0 47.0C202.0 109.66666666666667 0.0 109.66666666666667 0.0 47.0Z" stroke="#323232" stroke-width="2.0" stroke-dasharray="none" opacity="1.0" fill="#ffffff"/><g id="ProcessOnG1026" transform="matrix(1.0,0.0,0.0,1.0,10.0,27.0)"><text id="ProcessOnText1027" fill="#000000" font-weight="normal" font-style="normal" text-decoration="blink" font-family="微软雅黑" text-anchor="middle" font-size="16" x="91.0" y="16.4">记录调用方法的输入和和</text><text id="ProcessOnText1028" fill="#000000" font-weight="normal" font-style="normal" text-decoration="blink" font-family="微软雅黑" text-anchor="middle" font-size="16" x="91.0" y="36.4">输出</text></g></g><g id="ProcessOnG1029" transform="matrix(1.0,0.0,0.0,1.0,328.5,520.0)" opacity="1.0"><path id="ProcessOnPath1030" d="M0.0 47.0C0.0 -15.666666666666666 202.0 -15.666666666666666 202.0 47.0C202.0 109.66666666666667 0.0 109.66666666666667 0.0 47.0Z" stroke="#323232" stroke-width="2.0" stroke-dasharray="none" opacity="1.0" fill="#ffffff"/><g id="ProcessOnG1031" transform="matrix(1.0,0.0,0.0,1.0,10.0,37.0)"><text id="ProcessOnText1032" fill="#000000" font-weight="normal" font-style="normal" text-decoration="blink" font-family="微软雅黑" text-anchor="middle" font-size="16" x="91.0" y="16.4">根据配置选择启动模式</text></g></g><g id="ProcessOnG1033" transform="matrix(1.0,0.0,0.0,1.0,318.5,285.0)" opacity="1.0"><path id="ProcessOnPath1034" d="M0.0 47.0C0.0 -15.666666666666666 202.0 -15.666666666666666 202.0 47.0C202.0 109.66666666666667 0.0 109.66666666666667 0.0 47.0Z" stroke="#323232" stroke-width="2.0" stroke-dasharray="none" opacity="1.0" fill="#ffffff"/><g id="ProcessOnG1035" transform="matrix(1.0,0.0,0.0,1.0,10.0,37.0)"><text id="ProcessOnText1036" fill="#000000" font-weight="normal" font-style="normal" text-decoration="blink" font-family="微软雅黑" text-anchor="middle" font-size="16" x="91.0" y="16.4">代理方法调用</text></g></g><g id="ProcessOnG1037"><path id="ProcessOnPath1038" d="M491.3095269530372 298.6252311481466L634.0 182.5" stroke="#323232" stroke-width="2.0" stroke-dasharray="10.0 4.0" fill="none" marker-end="url(#ProcessOnMarker1039)"/></g><g id="ProcessOnG1041"><path id="ProcessOnPath1042" d="M484.31595971334866 368.1206147584282L620.0 478.0" stroke="#323232" stroke-width="2.0" stroke-dasharray="10.0 4.0" fill="none" marker-end="url(#ProcessOnMarker1043)"/></g><g id="ProcessOnG1045" transform="matrix(1.0,0.0,0.0,1.0,466.0,233.0)" opacity="1.0"><path id="ProcessOnPath1046" d="M0.0 0.0L160.0 0.0L160.0 40.0L0.0 40.0Z" stroke="#323232" stroke-width="0.0" stroke-dasharray="none" opacity="1.0" fill="none"/><g id="ProcessOnG1047" transform="matrix(1.0,0.0,0.0,1.0,0.0,11.875)"><text id="ProcessOnText1048" fill="#000000" font-weight="normal" font-style="normal" text-decoration="blink" font-family="微软雅黑" text-anchor="middle" font-size="13" x="80.0" y="13.325">&lt;&lt;include&gt;&gt;</text></g></g><g id="ProcessOnG1049" transform="matrix(1.0,0.0,0.0,1.0,444.0,417.0)" opacity="1.0"><path id="ProcessOnPath1050" d="M0.0 0.0L160.0 0.0L160.0 40.0L0.0 40.0Z" stroke="#323232" stroke-width="0.0" stroke-dasharray="none" opacity="1.0" fill="none"/><g id="ProcessOnG1051" transform="matrix(1.0,0.0,0.0,1.0,0.0,11.875)"><text id="ProcessOnText1052" fill="#000000" font-weight="normal" font-style="normal" text-decoration="blink" font-family="微软雅黑" text-anchor="middle" font-size="13" x="80.0" y="13.325">&lt;&lt;include&gt;&gt;</text></g></g><g id="ProcessOnG1053"><path id="ProcessOnPath1054" d="M194.0 429.0L318.5 332.0" stroke="#323232" stroke-width="2.0" stroke-dasharray="none" fill="none"/></g><g id="ProcessOnG1055"><path id="ProcessOnPath1056" d="M194.0 455.0L328.5 567.0" stroke="#323232" stroke-width="2.0" stroke-dasharray="none" fill="none"/></g><g id="ProcessOnG1057" transform="matrix(1.0,0.0,0.0,1.0,653.0,572.0)" opacity="1.0"><path id="ProcessOnPath1058" d="M0.0 0.0L120.0 0.0L136.0 16.0L136.0 60.0L0.0 60.0L0.0 0.0Z" stroke="#323232" stroke-width="2.0" stroke-dasharray="none" opacity="1.0" fill="#ffffff"/><path id="ProcessOnPath1059" d="M120.0 0.0L120.0 16.0L136.0 16.0" stroke="#323232" stroke-width="2.0" stroke-dasharray="none" opacity="1.0" fill="#ffffff"/><path id="ProcessOnPath1060" d="M0.0 0.0L120.0 0.0L136.0 16.0L136.0 60.0L0.0 60.0L0.0 0.0Z" stroke="#323232" stroke-width="2.0" stroke-dasharray="none" opacity="1.0" fill="none"/><g id="ProcessOnG1061" transform="matrix(1.0,0.0,0.0,1.0,10.0,20.625)"><text id="ProcessOnText1062" fill="#000000" font-weight="normal" font-style="normal" text-decoration="blink" font-family="微软雅黑" text-anchor="middle" font-size="15" x="58.0" y="15.375">配置文件</text></g></g><g id="ProcessOnG1063"><path id="ProcessOnPath1064" d="M530.5 567.0L653.0 587.0" stroke="#323232" stroke-width="2.0" stroke-dasharray="10.0 4.0" fill="none"/></g><g id="ProcessOnG1065" transform="matrix(1.0,0.0,0.0,1.0,484.0,103.0)" opacity="1.0"><path id="ProcessOnPath1066" d="M0.0 0.0L160.0 0.0L160.0 40.0L0.0 40.0Z" stroke="#323232" stroke-width="0.0" stroke-dasharray="none" opacity="1.0" fill="none"/><g id="ProcessOnG1067" transform="matrix(1.0,0.0,0.0,1.0,0.0,11.875)"><text id="ProcessOnText1068" fill="#000000" font-weight="normal" font-style="normal" text-decoration="blink" font-family="微软雅黑" text-anchor="middle" font-size="13" x="80.0" y="13.325">系统边界</text></g></g><g id="ProcessOnG1069" transform="matrix(1.0,0.0,0.0,1.0,493.0,325.0)" opacity="1.0"><path id="ProcessOnPath1070" d="M0.0 0.0L160.0 0.0L160.0 40.0L0.0 40.0Z" stroke="#323232" stroke-width="0.0" stroke-dasharray="none" opacity="1.0" fill="none"/><g id="ProcessOnG1071" transform="matrix(1.0,0.0,0.0,1.0,0.0,11.875)"><text id="ProcessOnText1072" fill="#000000" font-weight="normal" font-style="normal" text-decoration="blink" font-family="微软雅黑" text-anchor="middle" font-size="13" x="80.0" y="13.325">&lt;&lt;include&gt;&gt;</text></g></g><g id="ProcessOnG1073"><path id="ProcessOnPath1074" d="M520.5 332.0L644.0 332.0" stroke="#323232" stroke-width="2.0" stroke-dasharray="10.0 4.0" fill="none" marker-end="url(#ProcessOnMarker1075)"/></g><g id="ProcessOnG1077" transform="matrix(1.0,0.0,0.0,1.0,644.0,285.5)" opacity="1.0"><path id="ProcessOnPath1078" d="M0.0 46.5C0.0 -15.5 209.0 -15.5 209.0 46.5C209.0 108.5 0.0 108.5 0.0 46.5Z" stroke="#323232" stroke-width="2.0" stroke-dasharray="none" opacity="1.0" fill="#ffffff"/><g id="ProcessOnG1079" transform="matrix(1.0,0.0,0.0,1.0,10.0,36.5)"><text id="ProcessOnText1080" fill="#000000" font-weight="normal" font-style="normal" text-decoration="blink" font-family="微软雅黑" text-anchor="middle" font-size="16" x="94.5" y="16.4">转发原始调用</text></g></g></g></g></svg>