<svg xmlns="http://www.w3.org/2000/svg" xmlns:xlink="http://www.w3.org/1999/xlink" id="processonSvg1000" viewBox="210.0 75.5 829.0 566.5" width="829.0" height="566.5"><defs id="ProcessOnDefs1001"><marker id="ProcessOnMarker1031" markerUnits="userSpaceOnUse" orient="auto" markerWidth="16.23606797749979" markerHeight="10.550836550532098" viewBox="-1.0 -1.3763819204711736 16.23606797749979 10.550836550532098" refX="-1.0" refY="3.8990363547948754"><path id="ProcessOnPath1032" d="M12.0 3.8990363547948754L0.0 7.798072709589751V0.0Z" stroke="#323232" stroke-width="2.0" fill="#fff" transform="matrix(1.0,0.0,0.0,1.0,0.0,0.0)"/></marker><marker id="ProcessOnMarker1049" markerUnits="userSpaceOnUse" orient="auto" markerWidth="16.23606797749979" markerHeight="10.550836550532098" viewBox="-1.0 -1.3763819204711736 16.23606797749979 10.550836550532098" refX="-1.0" refY="3.8990363547948754"><path id="ProcessOnPath1050" d="M12.0 3.8990363547948754L0.0 7.798072709589751V0.0Z" stroke="#323232" stroke-width="2.0" fill="#fff" transform="matrix(1.0,0.0,0.0,1.0,0.0,0.0)"/></marker><marker id="ProcessOnMarker1053" markerUnits="userSpaceOnUse" orient="auto" markerWidth="20.609529741924973" markerHeight="10.888175666885001" viewBox="-2.3047648709624866 -1.5914908829822711 20.609529741924973 10.888175666885001" refX="16.0" refY="3.8525969504602293"><path id="ProcessOnPath1054" d="M0 3.8525969504602293L8.0 0L16.0 3.8525969504602293L8.0 7.705193900920459Z" stroke="#323232" stroke-width="2.0" fill="#fff"/></marker><marker id="ProcessOnMarker1055" markerUnits="userSpaceOnUse" orient="auto" markerWidth="16.23606797749979" markerHeight="10.550836550532098" viewBox="-1.0 -1.3763819204711736 16.23606797749979 10.550836550532098" refX="-1.0" refY="3.8990363547948754"><path id="ProcessOnPath1056" d="M12.0 3.8990363547948754L0.0 7.798072709589751V0.0Z" stroke="#323232" stroke-width="2.0" fill="#323232" transform="matrix(1.0,0.0,0.0,1.0,0.0,0.0)"/></marker></defs><g id="ProcessOnG1002"><path id="ProcessOnPath1003" d="M210.0 75.5H1039.0V642.0H210.0V75.5Z" fill="none"/><g id="ProcessOnG1004"><g id="ProcessOnG1005" transform="matrix(1.0,0.0,0.0,1.0,230.0,95.5)" opacity="1.0"><path id="ProcessOnPath1006" d="M0.0 4.0Q0.0 0.0 4.0 0.0L785.0 0.0Q789.0 0.0 789.0 4.0L789.0 522.5Q789.0 526.5 785.0 526.5L4.0 526.5Q0.0 526.5 0.0 522.5Z" stroke="#323232" stroke-width="2.0" stroke-dasharray="none" opacity="1.0" fill="#ffffff"/><path id="ProcessOnPath1007" d="M0.0 25.0L236.7 25.0L244.7 17.0L244.7 0.0" stroke="#323232" stroke-width="2.0" stroke-dasharray="none" opacity="1.0" fill="#ffffff"/><path id="ProcessOnPath1008" d="M0.0 0.0L789.0 0.0L789.0 526.5L0.0 526.5Z" stroke="#323232" stroke-width="0.0" stroke-dasharray="none" opacity="1.0" fill="none"/><g id="ProcessOnG1009" transform="matrix(1.0,0.0,0.0,1.0,10.0,30.0)"><text id="ProcessOnText1010" fill="#000000" font-weight="normal" font-style="normal" text-decoration="blink" font-family="微软雅黑" text-anchor="start" font-size="13" x="0.0" y="13.325"></text></g><g id="ProcessOnG1011" transform="matrix(1.0,0.0,0.0,1.0,10.0,0.0)"><text id="ProcessOnText1012" fill="#000000" font-weight="normal" font-style="normal" text-decoration="blink" font-family="微软雅黑" text-anchor="start" font-size="13" x="0.0" y="13.325">Test Module </text></g></g><g id="ProcessOnG1013" transform="matrix(1.0,0.0,0.0,1.0,490.0,187.0)" opacity="1.0"><path id="ProcessOnPath1014" d="M0.0 4.0Q0.0 0.0 4.0 0.0L226.0 0.0Q230.0 0.0 230.0 4.0L230.0 81.0Q230.0 85.0 226.0 85.0L4.0 85.0Q0.0 85.0 0.0 81.0Z" stroke="#323232" stroke-width="2.0" stroke-dasharray="none" opacity="1.0" fill="#ffffff"/><path id="ProcessOnPath1015" d="M0.0 30.0L230.0 30.0" stroke="#323232" stroke-width="2.0" stroke-dasharray="none" opacity="1.0" fill="none"/><path id="ProcessOnPath1016" d="M0.0 0.0L230.0 0.0L230.0 85.0L0.0 85.0Z" stroke="#323232" stroke-width="0.0" stroke-dasharray="none" opacity="1.0" fill="none"/><g id="ProcessOnG1017" transform="matrix(1.0,0.0,0.0,1.0,10.0,6.875)"><text id="ProcessOnText1018" fill="#000000" font-weight="bold" font-style="normal" text-decoration="blink" font-family="微软雅黑" text-anchor="middle" font-size="13" x="105.0" y="13.325">AbstractInterface</text></g><g id="ProcessOnG1019" transform="matrix(1.0,0.0,0.0,1.0,10.0,47.375)"><text id="ProcessOnText1020" fill="#000000" font-weight="bold" font-style="normal" text-decoration="blink" font-family="微软雅黑" text-anchor="middle" font-size="13" x="105.0" y="13.325">+ businessMethod(arg1, arg2)</text></g></g><g id="ProcessOnG1021" transform="matrix(1.0,0.0,0.0,1.0,278.0,396.5)" opacity="1.0"><path id="ProcessOnPath1022" d="M0.0 4.0Q0.0 0.0 4.0 0.0L224.0 0.0Q228.0 0.0 228.0 4.0L228.0 81.0Q228.0 85.0 224.0 85.0L4.0 85.0Q0.0 85.0 0.0 81.0Z" stroke="#323232" stroke-width="2.0" stroke-dasharray="none" opacity="1.0" fill="#ffffff"/><path id="ProcessOnPath1023" d="M0.0 30.0L228.0 30.0" stroke="#323232" stroke-width="2.0" stroke-dasharray="none" opacity="1.0" fill="none"/><path id="ProcessOnPath1024" d="M0.0 0.0L228.0 0.0L228.0 85.0L0.0 85.0Z" stroke="#323232" stroke-width="0.0" stroke-dasharray="none" opacity="1.0" fill="none"/><g id="ProcessOnG1025" transform="matrix(1.0,0.0,0.0,1.0,10.0,6.875)"><text id="ProcessOnText1026" fill="#000000" font-weight="bold" font-style="normal" text-decoration="blink" font-family="微软雅黑" text-anchor="middle" font-size="13" x="104.0" y="13.325">ConcreateImplemen</text></g><g id="ProcessOnG1027" transform="matrix(1.0,0.0,0.0,1.0,10.0,47.375)"><text id="ProcessOnText1028" fill="#000000" font-weight="bold" font-style="normal" text-decoration="blink" font-family="微软雅黑" text-anchor="middle" font-size="13" x="104.0" y="13.325">+ businessMethod(arg1, arg2)</text></g></g><g id="ProcessOnG1029"><path id="ProcessOnPath1030" d="M392.0 396.5L495.6203839556983 285.153534784447" stroke="#323232" stroke-width="2.0" stroke-dasharray="10.0 4.0" fill="none" marker-end="url(#ProcessOnMarker1031)"/></g><g id="ProcessOnG1033" transform="matrix(1.0,0.0,0.0,1.0,656.0,368.0)" opacity="1.0"><path id="ProcessOnPath1034" d="M0.0 4.0Q0.0 0.0 4.0 0.0L344.0 0.0Q348.0 0.0 348.0 4.0L348.0 163.0Q348.0 167.0 344.0 167.0L4.0 167.0Q0.0 167.0 0.0 163.0Z" stroke="#323232" stroke-width="2.0" stroke-dasharray="none" opacity="1.0" fill="#ffffff"/><path id="ProcessOnPath1035" d="M0.0 30.0L348.0 30.0" stroke="#323232" stroke-width="2.0" stroke-dasharray="none" opacity="1.0" fill="none"/><path id="ProcessOnPath1036" d="M0.0 0.0L348.0 0.0L348.0 167.0L0.0 167.0Z" stroke="#323232" stroke-width="0.0" stroke-dasharray="none" opacity="1.0" fill="none"/><g id="ProcessOnG1037" transform="matrix(1.0,0.0,0.0,1.0,10.0,6.875)"><text id="ProcessOnText1038" fill="#000000" font-weight="bold" font-style="normal" text-decoration="blink" font-family="微软雅黑" text-anchor="middle" font-size="13" x="164.0" y="13.325">ProxyImplement</text></g><g id="ProcessOnG1039" transform="matrix(1.0,0.0,0.0,1.0,10.0,39.625)"><text id="ProcessOnText1040" fill="#000000" font-weight="bold" font-style="normal" text-decoration="blink" font-family="微软雅黑" text-anchor="middle" font-size="13" x="164.0" y="13.325">- ImplementInstance : ConcreateImplement</text><text id="ProcessOnText1041" fill="#000000" font-weight="bold" font-style="normal" text-decoration="blink" font-family="微软雅黑" text-anchor="middle" font-size="13" x="164.0" y="29.575">- LoggerInstance : Logger</text><text id="ProcessOnText1042" fill="#000000" font-weight="bold" font-style="normal" text-decoration="blink" font-family="微软雅黑" text-anchor="middle" font-size="13" x="164.0" y="45.825"></text><text id="ProcessOnText1043" fill="#000000" font-weight="bold" font-style="normal" text-decoration="blink" font-family="微软雅黑" text-anchor="middle" font-size="13" x="164.0" y="62.075">+ businessMethod(arg1, arg2)</text><text id="ProcessOnText1044" fill="#000000" font-weight="bold" font-style="normal" text-decoration="blink" font-family="微软雅黑" text-anchor="middle" font-size="13" x="164.0" y="78.325">-  logBeforeInvoke()</text><text id="ProcessOnText1045" fill="#000000" font-weight="bold" font-style="normal" text-decoration="blink" font-family="微软雅黑" text-anchor="middle" font-size="13" x="164.0" y="94.575">-  logAfterInvoke()</text><text id="ProcessOnText1046" fill="#000000" font-weight="bold" font-style="normal" text-decoration="blink" font-family="微软雅黑" text-anchor="middle" font-size="13" x="164.0" y="110.825">-  logAfterThrown()</text></g></g><g id="ProcessOnG1047"><path id="ProcessOnPath1048" d="M830.0 368.0L715.246467587888 283.06431459261" stroke="#323232" stroke-width="2.0" stroke-dasharray="10.0 4.0" fill="none" marker-end="url(#ProcessOnMarker1049)"/></g><g id="ProcessOnG1051"><path id="ProcessOnPath1052" d="M637.6977769279627 445.6949629487994L521.2339522977038 443.7538992049617" stroke="#323232" stroke-width="2.0" stroke-dasharray="none" fill="none" marker-start="url(#ProcessOnMarker1053)" marker-end="url(#ProcessOnMarker1055)"/></g></g></g></svg>