<svg xmlns="http://www.w3.org/2000/svg" xmlns:xlink="http://www.w3.org/1999/xlink" id="processonSvg1000" viewBox="61.0 45.0 953.0 528.625" width="953.0" height="528.625"><defs id="ProcessOnDefs1001"><marker id="ProcessOnMarker1074" markerUnits="userSpaceOnUse" orient="auto" markerWidth="16.23606797749979" markerHeight="10.550836550532098" viewBox="-1.0 -1.3763819204711736 16.23606797749979 10.550836550532098" refX="-1.0" refY="3.8990363547948754"><path id="ProcessOnPath1075" d="M12.0 3.8990363547948754L0.0 7.798072709589751V0.0Z" stroke="#323232" stroke-width="2.0" fill="#323232" transform="matrix(1.0,0.0,0.0,1.0,0.0,0.0)"/></marker><marker id="ProcessOnMarker1078" markerUnits="userSpaceOnUse" orient="auto" markerWidth="16.23606797749979" markerHeight="10.550836550532098" viewBox="-1.0 -1.3763819204711736 16.23606797749979 10.550836550532098" refX="-1.0" refY="3.8990363547948754"><path id="ProcessOnPath1079" d="M12.0 3.8990363547948754L0.0 7.798072709589751V0.0Z" stroke="#323232" stroke-width="2.0" fill="#323232" transform="matrix(1.0,0.0,0.0,1.0,0.0,0.0)"/></marker><marker id="ProcessOnMarker1082" markerUnits="userSpaceOnUse" orient="auto" markerWidth="20.609529741924973" markerHeight="10.888175666885001" viewBox="-2.3047648709624866 -1.5914908829822711 20.609529741924973 10.888175666885001" refX="16.0" refY="3.8525969504602293"><path id="ProcessOnPath1083" d="M0 3.8525969504602293L8.0 0L16.0 3.8525969504602293L8.0 7.705193900920459Z" stroke="#323232" stroke-width="2.0" fill="#323232"/></marker><marker id="ProcessOnMarker1084" markerUnits="userSpaceOnUse" orient="auto" markerWidth="16.23606797749979" markerHeight="10.550836550532098" viewBox="-1.0 -1.3763819204711736 16.23606797749979 10.550836550532098" refX="-1.0" refY="3.8990363547948754"><path id="ProcessOnPath1085" d="M12.0 3.8990363547948754L0.0 7.798072709589751V0.0Z" stroke="#323232" stroke-width="2.0" fill="#323232" transform="matrix(1.0,0.0,0.0,1.0,0.0,0.0)"/></marker><marker id="ProcessOnMarker1088" markerUnits="userSpaceOnUse" orient="auto" markerWidth="20.609529741924973" markerHeight="10.888175666885001" viewBox="-2.3047648709624866 -1.5914908829822711 20.609529741924973 10.888175666885001" refX="16.0" refY="3.8525969504602293"><path id="ProcessOnPath1089" d="M0 3.8525969504602293L8.0 0L16.0 3.8525969504602293L8.0 7.705193900920459Z" stroke="#323232" stroke-width="2.0" fill="#fff"/></marker><marker id="ProcessOnMarker1090" markerUnits="userSpaceOnUse" orient="auto" markerWidth="16.23606797749979" markerHeight="10.550836550532098" viewBox="-1.0 -1.3763819204711736 16.23606797749979 10.550836550532098" refX="-1.0" refY="3.8990363547948754"><path id="ProcessOnPath1091" d="M12.0 3.8990363547948754L0.0 7.798072709589751V0.0Z" stroke="#323232" stroke-width="2.0" fill="#323232" transform="matrix(1.0,0.0,0.0,1.0,0.0,0.0)"/></marker><marker id="ProcessOnMarker1094" markerUnits="userSpaceOnUse" orient="auto" markerWidth="20.609529741924973" markerHeight="10.888175666885001" viewBox="-2.3047648709624866 -1.5914908829822711 20.609529741924973 10.888175666885001" refX="16.0" refY="3.8525969504602293"><path id="ProcessOnPath1095" d="M0 3.8525969504602293L8.0 0L16.0 3.8525969504602293L8.0 7.705193900920459Z" stroke="#323232" stroke-width="2.0" fill="#fff"/></marker><marker id="ProcessOnMarker1096" markerUnits="userSpaceOnUse" orient="auto" markerWidth="16.23606797749979" markerHeight="10.550836550532098" viewBox="-1.0 -1.3763819204711736 16.23606797749979 10.550836550532098" refX="-1.0" refY="3.8990363547948754"><path id="ProcessOnPath1097" d="M12.0 3.8990363547948754L0.0 7.798072709589751V0.0Z" stroke="#323232" stroke-width="2.0" fill="#323232" transform="matrix(1.0,0.0,0.0,1.0,0.0,0.0)"/></marker></defs><g id="ProcessOnG1002"><path id="ProcessOnPath1003" d="M61.0 45.0H1014.0V573.625H61.0V45.0Z" fill="none"/><g id="ProcessOnG1004"><g id="ProcessOnG1005" transform="matrix(1.0,0.0,0.0,1.0,81.0,65.0)" opacity="1.0"><path id="ProcessOnPath1006" d="M0.0 4.0Q0.0 0.0 4.0 0.0L235.0 0.0Q239.0 0.0 239.0 4.0L239.0 108.0Q239.0 112.0 235.0 112.0L4.0 112.0Q0.0 112.0 0.0 108.0Z" stroke="#323232" stroke-width="2.0" stroke-dasharray="none" opacity="1.0" fill="#ffffff"/><path id="ProcessOnPath1007" d="M0.0 30.0L239.0 30.0M0.0 71.0L239.0 71.0" stroke="#323232" stroke-width="2.0" stroke-dasharray="none" opacity="1.0" fill="none"/><path id="ProcessOnPath1008" d="M0.0 0.0L239.0 0.0L239.0 112.0L0.0 112.0Z" stroke="#323232" stroke-width="0.0" stroke-dasharray="none" opacity="1.0" fill="none"/><g id="ProcessOnG1009" transform="matrix(1.0,0.0,0.0,1.0,10.0,6.875)"><text id="ProcessOnText1010" fill="#000000" font-weight="bold" font-style="italic" text-decoration="blink" font-family="微软雅黑" text-anchor="middle" font-size="13" x="109.5" y="13.325">Core</text></g><g id="ProcessOnG1011" transform="matrix(1.0,0.0,0.0,1.0,10.0,39.875)"><text id="ProcessOnText1012" fill="#000000" font-weight="bold" font-style="italic" text-decoration="blink" font-family="微软雅黑" text-anchor="middle" font-size="13" x="109.5" y="13.325">public void init();</text></g><g id="ProcessOnG1013" transform="matrix(1.0,0.0,0.0,1.0,10.0,75.75)"><text id="ProcessOnText1014" fill="#000000" font-weight="bold" font-style="italic" text-decoration="blink" font-family="微软雅黑" text-anchor="middle" font-size="13" x="109.5" y="13.325">StaticHandler staticHandler</text><text id="ProcessOnText1015" fill="#000000" font-weight="bold" font-style="italic" text-decoration="blink" font-family="微软雅黑" text-anchor="middle" font-size="13" x="109.5" y="29.575">Enum role</text></g></g><g id="ProcessOnG1016" transform="matrix(1.0,0.0,0.0,1.0,456.0,66.0)" opacity="1.0"><path id="ProcessOnPath1017" d="M0.0 4.0Q0.0 0.0 4.0 0.0L185.0 0.0Q189.0 0.0 189.0 4.0L189.0 106.0Q189.0 110.0 185.0 110.0L4.0 110.0Q0.0 110.0 0.0 106.0Z" stroke="#323232" stroke-width="2.0" stroke-dasharray="none" opacity="1.0" fill="#ffffff"/><path id="ProcessOnPath1018" d="M0.0 30.0L189.0 30.0M0.0 71.0L189.0 71.0" stroke="#323232" stroke-width="2.0" stroke-dasharray="none" opacity="1.0" fill="none"/><path id="ProcessOnPath1019" d="M0.0 0.0L189.0 0.0L189.0 110.0L0.0 110.0Z" stroke="#323232" stroke-width="0.0" stroke-dasharray="none" opacity="1.0" fill="none"/><g id="ProcessOnG1020" transform="matrix(1.0,0.0,0.0,1.0,10.0,6.875)"><text id="ProcessOnText1021" fill="#000000" font-weight="bold" font-style="italic" text-decoration="blink" font-family="微软雅黑" text-anchor="middle" font-size="13" x="84.5" y="13.325">StaticHandler</text></g><g id="ProcessOnG1022" transform="matrix(1.0,0.0,0.0,1.0,10.0,31.75)"><text id="ProcessOnText1023" fill="#000000" font-weight="bold" font-style="italic" text-decoration="blink" font-family="微软雅黑" text-anchor="middle" font-size="13" x="84.5" y="13.325">public void handleReq(re</text><text id="ProcessOnText1024" fill="#000000" font-weight="bold" font-style="italic" text-decoration="blink" font-family="微软雅黑" text-anchor="middle" font-size="13" x="84.5" y="29.575">quest);</text></g><g id="ProcessOnG1025" transform="matrix(1.0,0.0,0.0,1.0,10.0,82.875)"><text id="ProcessOnText1026" fill="#000000" font-weight="bold" font-style="italic" text-decoration="blink" font-family="微软雅黑" text-anchor="middle" font-size="13" x="84.5" y="13.325">Diverter diverter</text></g></g><g id="ProcessOnG1027" transform="matrix(1.0,0.0,0.0,1.0,375.0,301.0)" opacity="1.0"><path id="ProcessOnPath1028" d="M0.0 4.0Q0.0 0.0 4.0 0.0L211.0 0.0Q215.0 0.0 215.0 4.0L215.0 113.0Q215.0 117.0 211.0 117.0L4.0 117.0Q0.0 117.0 0.0 113.0Z" stroke="#323232" stroke-width="2.0" stroke-dasharray="none" opacity="1.0" fill="#ffffff"/><path id="ProcessOnPath1029" d="M0.0 30.0L215.0 30.0M0.0 68.0L215.0 68.0" stroke="#323232" stroke-width="2.0" stroke-dasharray="none" opacity="1.0" fill="none"/><path id="ProcessOnPath1030" d="M0.0 0.0L215.0 0.0L215.0 117.0L0.0 117.0Z" stroke="#323232" stroke-width="0.0" stroke-dasharray="none" opacity="1.0" fill="none"/><g id="ProcessOnG1031" transform="matrix(1.0,0.0,0.0,1.0,10.0,6.875)"><text id="ProcessOnText1032" fill="#000000" font-weight="bold" font-style="italic" text-decoration="blink" font-family="微软雅黑" text-anchor="middle" font-size="13" x="97.5" y="13.325">Diverter</text></g><g id="ProcessOnG1033" transform="matrix(1.0,0.0,0.0,1.0,10.0,24.625)"><text id="ProcessOnText1034" fill="#000000" font-weight="bold" font-style="italic" text-decoration="blink" font-family="微软雅黑" text-anchor="middle" font-size="13" x="97.5" y="13.325">public void forwardReq(requ</text><text id="ProcessOnText1035" fill="#000000" font-weight="bold" font-style="italic" text-decoration="blink" font-family="微软雅黑" text-anchor="middle" font-size="13" x="97.5" y="29.575">est)</text><text id="ProcessOnText1036" fill="#000000" font-weight="bold" font-style="italic" text-decoration="blink" font-family="微软雅黑" text-anchor="middle" font-size="13" x="97.5" y="45.825">public void findNode()</text></g><g id="ProcessOnG1037" transform="matrix(1.0,0.0,0.0,1.0,10.0,68.125)"><text id="ProcessOnText1038" fill="#000000" font-weight="bold" font-style="italic" text-decoration="blink" font-family="微软雅黑" text-anchor="middle" font-size="13" x="97.5" y="13.325">List&lt;Node&gt; slaves</text><text id="ProcessOnText1039" fill="#000000" font-weight="bold" font-style="italic" text-decoration="blink" font-family="微软雅黑" text-anchor="middle" font-size="13" x="97.5" y="29.575">Strategy findDiverterStrateg</text><text id="ProcessOnText1040" fill="#000000" font-weight="bold" font-style="italic" text-decoration="blink" font-family="微软雅黑" text-anchor="middle" font-size="13" x="97.5" y="45.825">y</text></g></g><g id="ProcessOnG1041" transform="matrix(1.0,0.0,0.0,1.0,702.0,289.0)" opacity="1.0"><path id="ProcessOnPath1042" d="M0.0 4.0Q0.0 0.0 4.0 0.0L133.0 0.0Q137.0 0.0 137.0 4.0L137.0 109.0Q137.0 113.0 133.0 113.0L4.0 113.0Q0.0 113.0 0.0 109.0Z" stroke="#323232" stroke-width="2.0" stroke-dasharray="none" opacity="1.0" fill="#ffffff"/><path id="ProcessOnPath1043" d="M0.0 30.0L137.0 30.0M0.0 66.0L137.0 66.0" stroke="#323232" stroke-width="2.0" stroke-dasharray="none" opacity="1.0" fill="none"/><path id="ProcessOnPath1044" d="M0.0 0.0L137.0 0.0L137.0 113.0L0.0 113.0Z" stroke="#323232" stroke-width="0.0" stroke-dasharray="none" opacity="1.0" fill="none"/><g id="ProcessOnG1045" transform="matrix(1.0,0.0,0.0,1.0,10.0,6.875)"><text id="ProcessOnText1046" fill="#000000" font-weight="bold" font-style="italic" text-decoration="blink" font-family="微软雅黑" text-anchor="middle" font-size="13" x="58.5" y="13.325">Strategy</text></g><g id="ProcessOnG1047" transform="matrix(1.0,0.0,0.0,1.0,10.0,31.75)"><text id="ProcessOnText1048" fill="#000000" font-weight="bold" font-style="italic" text-decoration="blink" font-family="微软雅黑" text-anchor="middle" font-size="13" x="58.5" y="13.325">public Node find(</text><text id="ProcessOnText1049" fill="#000000" font-weight="bold" font-style="italic" text-decoration="blink" font-family="微软雅黑" text-anchor="middle" font-size="13" x="58.5" y="29.575">)</text></g><g id="ProcessOnG1050" transform="matrix(1.0,0.0,0.0,1.0,10.0,81.375)"><text id="ProcessOnText1051" fill="#000000" font-weight="bold" font-style="italic" text-decoration="blink" font-family="微软雅黑" text-anchor="middle" font-size="13" x="58.5" y="13.325"></text></g></g><g id="ProcessOnG1052" transform="matrix(1.0,0.0,0.0,1.0,544.0,456.0)" opacity="1.0"><path id="ProcessOnPath1053" d="M0.0 4.0Q0.0 0.0 4.0 0.0L203.0 0.0Q207.0 0.0 207.0 4.0L207.0 74.0Q207.0 78.0 203.0 78.0L4.0 78.0Q0.0 78.0 0.0 74.0Z" stroke="#323232" stroke-width="2.0" stroke-dasharray="none" opacity="1.0" fill="#ffffff"/><path id="ProcessOnPath1054" d="M0.0 30.0L207.0 30.0M0.0 66.0L207.0 66.0" stroke="#323232" stroke-width="2.0" stroke-dasharray="none" opacity="1.0" fill="none"/><path id="ProcessOnPath1055" d="M0.0 0.0L207.0 0.0L207.0 78.0L0.0 78.0Z" stroke="#323232" stroke-width="0.0" stroke-dasharray="none" opacity="1.0" fill="none"/><g id="ProcessOnG1056" transform="matrix(1.0,0.0,0.0,1.0,10.0,6.875)"><text id="ProcessOnText1057" fill="#000000" font-weight="bold" font-style="italic" text-decoration="blink" font-family="微软雅黑" text-anchor="middle" font-size="13" x="93.5" y="13.325">SequenceStrategy</text></g><g id="ProcessOnG1058" transform="matrix(1.0,0.0,0.0,1.0,10.0,39.875)"><text id="ProcessOnText1059" fill="#000000" font-weight="bold" font-style="italic" text-decoration="blink" font-family="微软雅黑" text-anchor="middle" font-size="13" x="93.5" y="13.325">public Node find()</text></g><g id="ProcessOnG1060" transform="matrix(1.0,0.0,0.0,1.0,10.0,81.375)"><text id="ProcessOnText1061" fill="#000000" font-weight="bold" font-style="italic" text-decoration="blink" font-family="微软雅黑" text-anchor="middle" font-size="13" x="93.5" y="13.325"></text></g></g><g id="ProcessOnG1062" transform="matrix(1.0,0.0,0.0,1.0,793.0,456.0)" opacity="1.0"><path id="ProcessOnPath1063" d="M0.0 4.0Q0.0 0.0 4.0 0.0L197.0 0.0Q201.0 0.0 201.0 4.0L201.0 74.0Q201.0 78.0 197.0 78.0L4.0 78.0Q0.0 78.0 0.0 74.0Z" stroke="#323232" stroke-width="2.0" stroke-dasharray="none" opacity="1.0" fill="#ffffff"/><path id="ProcessOnPath1064" d="M0.0 30.0L201.0 30.0M0.0 66.0L201.0 66.0" stroke="#323232" stroke-width="2.0" stroke-dasharray="none" opacity="1.0" fill="none"/><path id="ProcessOnPath1065" d="M0.0 0.0L201.0 0.0L201.0 78.0L0.0 78.0Z" stroke="#323232" stroke-width="0.0" stroke-dasharray="none" opacity="1.0" fill="none"/><g id="ProcessOnG1066" transform="matrix(1.0,0.0,0.0,1.0,10.0,6.875)"><text id="ProcessOnText1067" fill="#000000" font-weight="bold" font-style="italic" text-decoration="blink" font-family="微软雅黑" text-anchor="middle" font-size="13" x="90.5" y="13.325">WeightStrategy</text></g><g id="ProcessOnG1068" transform="matrix(1.0,0.0,0.0,1.0,10.0,39.875)"><text id="ProcessOnText1069" fill="#000000" font-weight="bold" font-style="italic" text-decoration="blink" font-family="微软雅黑" text-anchor="middle" font-size="13" x="90.5" y="13.325">public Node find()</text></g><g id="ProcessOnG1070" transform="matrix(1.0,0.0,0.0,1.0,10.0,81.375)"><text id="ProcessOnText1071" fill="#000000" font-weight="bold" font-style="italic" text-decoration="blink" font-family="微软雅黑" text-anchor="middle" font-size="13" x="90.5" y="13.325"></text></g></g><g id="ProcessOnG1072"><path id="ProcessOnPath1073" d="M647.5 456.0L647.5 415.0L770.5 415.0L770.5 389.2360679774998" stroke="#323232" stroke-width="2.0" stroke-dasharray="none" fill="none" marker-end="url(#ProcessOnMarker1074)"/></g><g id="ProcessOnG1076"><path id="ProcessOnPath1077" d="M893.5 456.0L893.5 415.0L770.5 415.0L770.5 389.2360679774998" stroke="#323232" stroke-width="2.0" stroke-dasharray="none" fill="none" marker-end="url(#ProcessOnMarker1078)"/></g><g id="ProcessOnG1080"><path id="ProcessOnPath1081" d="M770.5 270.69523512903754L770.5 259.0L620.0 259.0L620.0 357.0L605.2360679774998 357.0" stroke="#323232" stroke-width="2.0" stroke-dasharray="none" fill="none" marker-start="url(#ProcessOnMarker1082)" marker-end="url(#ProcessOnMarker1084)"/></g><g id="ProcessOnG1086"><path id="ProcessOnPath1087" d="M482.5 282.69523512903754L482.5 238.5L550.5 238.5L550.5 191.2360679774998" stroke="#323232" stroke-width="2.0" stroke-dasharray="none" fill="none" marker-start="url(#ProcessOnMarker1088)" marker-end="url(#ProcessOnMarker1090)"/></g><g id="ProcessOnG1092"><path id="ProcessOnPath1093" d="M437.69523512903754 121.0L388.0 121.0L388.0 121.0L335.2360679774998 121.0" stroke="#323232" stroke-width="2.0" stroke-dasharray="none" fill="none" marker-start="url(#ProcessOnMarker1094)" marker-end="url(#ProcessOnMarker1096)"/></g><g id="ProcessOnG1098" transform="matrix(1.0,0.0,0.0,1.0,93.0,306.0)" opacity="1.0"><path id="ProcessOnPath1099" d="M0.0 4.0Q0.0 0.0 4.0 0.0L211.0 0.0Q215.0 0.0 215.0 4.0L215.0 108.0Q215.0 112.0 211.0 112.0L4.0 112.0Q0.0 112.0 0.0 108.0Z" stroke="#323232" stroke-width="2.0" stroke-dasharray="none" opacity="1.0" fill="#ffffff"/><path id="ProcessOnPath1100" d="M0.0 30.0L215.0 30.0M0.0 71.0L215.0 71.0" stroke="#323232" stroke-width="2.0" stroke-dasharray="none" opacity="1.0" fill="none"/><path id="ProcessOnPath1101" d="M0.0 0.0L215.0 0.0L215.0 112.0L0.0 112.0Z" stroke="#323232" stroke-width="0.0" stroke-dasharray="none" opacity="1.0" fill="none"/><g id="ProcessOnG1102" transform="matrix(1.0,0.0,0.0,1.0,10.0,6.875)"><text id="ProcessOnText1103" fill="#000000" font-weight="bold" font-style="italic" text-decoration="blink" font-family="微软雅黑" text-anchor="middle" font-size="13" x="97.5" y="13.325">Node</text></g><g id="ProcessOnG1104" transform="matrix(1.0,0.0,0.0,1.0,10.0,39.875)"><text id="ProcessOnText1105" fill="#000000" font-weight="bold" font-style="italic" text-decoration="blink" font-family="微软雅黑" text-anchor="middle" font-size="13" x="97.5" y="13.325"></text></g><g id="ProcessOnG1106" transform="matrix(1.0,0.0,0.0,1.0,10.0,75.75)"><text id="ProcessOnText1107" fill="#000000" font-weight="bold" font-style="italic" text-decoration="blink" font-family="微软雅黑" text-anchor="middle" font-size="13" x="97.5" y="13.325">String nodeName;</text><text id="ProcessOnText1108" fill="#000000" font-weight="bold" font-style="italic" text-decoration="blink" font-family="微软雅黑" text-anchor="middle" font-size="13" x="97.5" y="29.575">String nodeAddr;</text></g></g></g></g></svg>